<svg version="1.1" xmlns="http://www.w3.org/2000/svg" style="display: block;" viewBox="0 0 2048 2048" width="663" height="663">
<path transform="translate(0,0)" fill="rgb(254,254,254)" d="M 0 240.019 C 0.245666 239.591 0.500478 239.167 0.736998 238.733 C 5.35696 230.26 6.67103 212.039 10.6785 201.426 C 29.1664 151.554 69.4382 112.869 120.013 96.4009 C 154.417 85.1862 189.356 86.432 224.972 86.4309 L 294.498 86.443 L 462.999 86.4972 L 907.973 86.508 L 1331.31 86.5089 L 1467.38 86.4485 C 1491.91 86.4251 1516.84 85.4345 1541.32 86.7521 C 1569.49 88.2685 1596.93 93.8143 1622.21 106.721 C 1664.23 128.177 1694.09 166.571 1708.12 211.168 C 1721.66 254.187 1717.51 303.103 1717.5 347.685 L 1717.46 461.72 L 1717.49 568.526 C 1717.49 589.317 1718.01 610.253 1717.13 631.021 C 1669.52 642.122 1664.5 650.718 1630.59 684.721 C 1623.22 692.112 1615.86 700.17 1607.19 706.033 C 1605.75 689.592 1606.19 672.986 1606.19 656.495 L 1606.21 584.485 L 1606.19 361.084 L 1606.31 295.414 C 1606.34 282.373 1607.54 268.187 1605.21 255.354 C 1602.52 240.539 1593.94 225.217 1582.52 215.36 C 1565.51 200.675 1541.66 199.413 1520.25 198.162 C 1491.2 196.465 1461.51 197.66 1432.39 197.671 L 1270.54 197.733 L 772.832 197.737 L 379.256 197.734 L 254.919 197.692 C 231.092 197.686 206.598 196.568 182.858 198.647 C 160.266 200.626 140.74 207.217 125.915 225.138 C 118.881 233.641 113.646 243.856 111.966 254.832 C 110.344 265.436 111.102 276.881 110.949 287.612 C 110.748 301.687 109.166 315.794 109.216 329.857 C 109.254 340.72 110.978 351.586 110.868 362.433 C 110.746 374.431 108.469 386.386 108.356 398.405 C 108.17 420.118 108.428 441.832 109.13 463.534 C 109.338 470.989 110.39 478.425 110.513 485.878 C 110.647 493.971 107.987 502.357 108.557 510.345 C 109.261 520.199 113.169 520.372 108.216 531.051 C 108.663 537.593 111.692 544.319 109.396 550.616 C 106.24 559.273 109.475 570.419 109.767 579.453 C 109.878 582.888 109.18 586.287 109.597 589.702 C 110.097 590.45 110.802 591.095 111.096 591.944 C 111.903 594.272 108.617 615.989 108.324 620.018 C 107.71 628.448 108.054 637.051 108.041 645.507 L 108.119 756.998 C 108.255 769.91 109.42 782.847 109.377 795.743 C 109.291 821.62 107.712 847.611 107.996 873.498 C 108.123 885.028 110.59 896.597 110.342 908.094 C 110.126 918.083 107.039 928.875 107.836 938.733 C 108.157 942.701 111.266 948.819 110.573 952.438 C 110.294 953.893 108.775 955.767 107.97 956.938 C 108.817 962.506 111.634 960.848 107.795 966.439 C 108.155 968.413 108.663 969.399 109.849 971.013 C 106.269 992.557 109.961 1013.96 109.796 1035.51 L 109.145 1104.28 C 109.124 1108.03 110.346 1111.43 110.267 1115.2 C 110.105 1123.02 108.875 1130.78 108.584 1138.6 C 107.825 1158.96 108.994 1187.43 111.803 1207.48 C 113.16 1217.42 116.91 1226.89 122.731 1235.06 C 132.588 1249.02 149.796 1259.33 166.602 1262.24 C 177.627 1264.14 189.36 1263.98 200.543 1264.77 C 255.642 1268.7 311.812 1266.5 367.082 1266.47 C 384.763 1266.45 428.634 1268.92 443.464 1264.99 L 444.809 1265.56 C 444.63 1266.25 444.681 1267.04 444.272 1267.62 C 441.525 1271.51 419.426 1289.01 414.254 1293.52 L 358.149 1342.66 C 346.043 1353.38 333.254 1367.41 319.115 1375.28 C 315.59 1377.24 310.615 1377.57 306.627 1377.79 C 285.285 1378.99 263.386 1377.59 241.984 1377.63 C 215.179 1377.68 187.348 1379.34 160.693 1377.1 C 146.884 1375.93 133.016 1372.85 119.855 1368.56 C 76.4248 1354.39 38.9587 1321.32 18.4414 1280.59 C 13.8115 1271.26 9.99391 1261.55 7.03099 1251.57 C 4.67067 1243.56 4.34287 1230.8 0 1224.03 L 0 240.019 z"/>
<path transform="translate(0,0)" fill="rgb(254,254,254)" d="M 1723.11 708.124 C 1728.23 708.437 1732.86 710.582 1736.9 713.678 C 1759.41 730.912 1780.26 751.799 1801.25 770.907 L 1896.56 856.729 C 1937.27 893.349 1979.16 928.753 2018.55 966.785 C 2024.81 972.827 2032.33 977.432 2038.31 983.747 C 2046.01 991.886 2045.16 1000.92 2044.98 1011.37 C 2024.8 1032.28 2002.67 1050.64 1980.97 1069.9 L 1876.42 1162.81 L 1790.47 1238.92 L 1759.22 1266.76 C 1753.31 1272.1 1747.67 1277.9 1741.21 1282.58 C 1735.44 1286.75 1729.82 1288.33 1722.69 1288.4 C 1715.59 1288.47 1708.47 1286.84 1703.37 1281.61 C 1699.38 1277.51 1697.22 1272.16 1696.3 1266.58 C 1694.08 1253.16 1695.81 1237.42 1695.95 1223.77 C 1696.12 1205.97 1695.64 1188.2 1695.68 1170.4 C 1695.69 1164.36 1695.8 1157.39 1698.14 1151.75 C 1704.42 1136.59 1736.85 1106.41 1749.9 1093.42 C 1729.54 1093.93 1709.13 1093.07 1688.76 1093.53 C 1674.12 1093.86 1659.6 1095.86 1644.97 1096.39 C 1620.05 1097.3 1594.89 1096.61 1569.94 1096.59 L 1494.32 1096.55 C 1475.99 1096.54 1457.51 1096 1439.27 1098.03 C 1414.98 1100.57 1391.3 1107.21 1369.24 1117.68 C 1311.36 1145.44 1249.23 1209.83 1200.82 1252.83 C 1179.77 1271.53 1158.54 1290.19 1138.22 1309.68 C 1133.23 1314.46 1127.02 1319.03 1122.74 1324.4 C 1124.25 1326.29 1125.79 1328.15 1127.46 1329.9 C 1143.05 1346.24 1159.46 1361.97 1175.45 1377.94 C 1192.03 1394.51 1208.36 1411.46 1225.34 1427.63 C 1233.91 1435.79 1243.25 1443.12 1251.84 1451.26 C 1293.53 1490.8 1331.09 1536.41 1383.38 1562.81 C 1412.23 1577.37 1451.75 1584.03 1483.97 1584.95 C 1478.01 1578.41 1472.57 1571.24 1466.77 1564.52 C 1457.56 1553.88 1447.04 1543.25 1439.55 1531.34 C 1436.57 1526.6 1434.56 1521.82 1433.22 1516.4 C 1427.98 1495.3 1426.93 1420.67 1438.01 1403.03 C 1444.07 1393.4 1454.3 1391.36 1464.66 1389.28 C 1471.73 1391.73 1477.83 1395.72 1483.7 1400.28 C 1491.31 1406.18 1497.98 1413.3 1505.02 1419.86 C 1516.24 1430.32 1527.82 1440.45 1539.1 1450.88 C 1566.67 1476.36 1595.15 1500.9 1622.87 1526.22 C 1635.04 1537.33 1647.54 1548.28 1659.53 1559.55 C 1669.49 1568.91 1678.93 1578.55 1689.55 1587.19 C 1706.03 1600.64 1721.58 1615.94 1737.22 1630.37 C 1745.47 1637.98 1754.83 1644.67 1762.27 1653.1 C 1768.16 1659.78 1770.9 1664.82 1770.02 1673.96 C 1769.42 1680.21 1766.2 1684.83 1762.16 1689.4 C 1747.06 1706.48 1729.64 1720.57 1713.04 1736.03 L 1631.53 1811.48 L 1513.63 1920.08 C 1499.56 1932.88 1486.35 1945.98 1471.64 1958.16 C 1469.27 1958.31 1466.91 1958.43 1464.54 1958.51 C 1455.86 1958.82 1447.27 1958.27 1440.75 1951.81 C 1436.25 1947.36 1432.7 1940.52 1431.32 1934.37 C 1428.21 1920.51 1429.65 1861.21 1430.2 1843.87 C 1430.39 1837.7 1430.91 1830.33 1433.31 1824.62 C 1438.77 1811.58 1473.21 1774.2 1484.2 1763.85 L 1483.06 1763.87 C 1413.26 1764.94 1358.07 1754.33 1295.79 1722.94 C 1212.79 1681.1 1159.74 1624.64 1094.93 1559.7 C 1060.46 1525.17 1023.41 1493.47 990.007 1457.81 C 962.421 1428.35 936.155 1397.52 908.844 1367.8 C 901.786 1360.12 894.106 1353.03 887.022 1345.38 C 877.377 1334.96 868.705 1323.92 858.496 1313.99 C 894.28 1284.03 928.136 1251.55 962.609 1220.08 L 1074.27 1119.63 C 1130.38 1068.56 1199.15 1005.33 1264.07 967.319 C 1310.97 939.86 1364.19 919.207 1418.38 912.465 C 1460.58 907.214 1502.9 908.106 1545.32 908.112 C 1613.62 908.123 1682.28 909.654 1750.54 907.763 C 1737.98 887.194 1705.67 867.899 1698.23 844.464 C 1694.4 832.377 1694.86 754.132 1696.23 739.06 C 1696.72 733.663 1697.6 727.08 1700.2 722.308 C 1705.21 713.136 1713.78 710.792 1723.11 708.124 z"/>
<path transform="translate(0,0)" fill="rgb(254,254,254)" d="M 1191.03 452.3 C 1192.69 452.093 1194.31 451.897 1195.98 451.869 C 1216.35 451.53 1240.02 458.648 1256.87 470.078 C 1266.85 476.847 1275.5 486.267 1284.02 494.75 C 1295.47 506.149 1307.31 517.404 1318.27 529.27 C 1326.12 537.768 1333.26 546.904 1341.33 555.202 L 1496.15 713.098 C 1500.42 717.409 1507.54 724.049 1509.33 729.855 C 1512.73 740.867 1510.55 802.436 1510.48 818.493 C 1471.24 819.178 1432.91 817.303 1393.93 823.587 C 1370.39 827.382 1347.52 835.088 1325 842.673 C 1206.11 882.714 1143.22 937.619 1051.6 1018.83 C 1019.93 1046.51 988.393 1074.36 957.003 1102.37 C 918.36 1137.47 881.116 1175.17 829.393 1190.12 C 800.538 1198.46 767.341 1195.42 737.558 1195.39 L 645.864 1195.33 L 342.5 1195.36 L 251.343 1195.47 C 234.609 1195.5 214.395 1197.63 198.172 1193.85 C 189.617 1191.85 182.958 1186.98 176.108 1181.8 C 176.086 1160.72 173.778 1029.45 177.358 1020.07 C 182.591 1006.36 368.812 819.808 390.538 800.579 C 396.231 795.54 401.374 791.936 408.31 788.788 C 420.612 783.206 432.242 781.007 445.73 781.093 C 492.032 781.387 521.083 819.124 551.148 849.309 C 567.178 865.404 584.66 879.752 600.637 895.801 C 616.099 911.333 630.043 928.698 651.05 936.65 C 659.536 935.3 668.304 933.152 675.408 928.109 C 687.369 919.618 697.974 906.911 708.312 896.508 L 769.853 834.66 L 1011.94 595.835 L 1090.61 517.095 C 1105.94 501.72 1121.16 483.765 1138.82 471.212 C 1154.68 459.932 1172.05 455.282 1191.03 452.3 z"/>
<path transform="translate(0,0)" fill="rgb(254,254,254)" d="M 502.961 347.492 C 591.237 344.466 665.222 413.636 668.132 501.916 C 671.043 590.195 601.775 664.089 513.492 666.883 C 425.373 669.672 351.646 600.561 348.741 512.446 C 345.836 424.331 414.85 350.513 502.961 347.492 z"/>
</svg>